PathFileType	4	(X/Y/Z)	W14_1_OpenSim.trc																																																																																																																						
DataRate	CameraRate	NumFrames	NumMarkers	Units	OrigDataRate	OrigDataStartFrame	OrigNumFrames																																																																																																																		
100	100	4	40	mm	100	2251	3000																																																																																																																		
Frame#	Time	R.ASIS			R.PSIS			S2			L.PSIS			L.ASIS			R.TH1			R.TH2			R.TH3			R.MKnee			R.Knee			R.SH1			R.SH2			R.SH3			R.SH4			R.Ankle			R.MAnkle			R.Heel			R.MT5			R.MT1			L.TH1			L.TH2			L.TH3			L.TH4			L.MKnee			L.Knee			L.SH1			L.SH2			L.SH3			L.Ankle			L.MAnkle			L.Heel			L.MT5			L.MT1			R.Acr			L.Acr			C7			T10			Clav			Sternum			R.Back		
		X1	Y1	Z1	X2	Y2	Z2	X3	Y3	Z3	X4	Y4	Z4	X5	Y5	Z5	X6	Y6	Z6	X7	Y7	Z7	X8	Y8	Z8	X9	Y9	Z9	X10	Y10	Z10	X11	Y11	Z11	X12	Y12	Z12	X13	Y13	Z13	X14	Y14	Z14	X15	Y15	Z15	X16	Y16	Z16	X17	Y17	Z17	X18	Y18	Z18	X19	Y19	Z19	X20	Y20	Z20	X21	Y21	Z21	X22	Y22	Z22	X23	Y23	Z23	X24	Y24	Z24	X25	Y25	Z25	X26	Y26	Z26	X27	Y27	Z27	X28	Y28	Z28	X29	Y29	Z29	X30	Y30	Z30	X31	Y31	Z31	X32	Y32	Z32	X33	Y33	Z33	X34	Y34	Z34	X35	Y35	Z35	X36	Y36	Z36	X37	Y37	Z37	X38	Y38	Z38	X39	Y39	Z39	X40	Y40	Z40
2251	22.5	1048.2098	1028.7888	-413.1305	855.8253	1030.3654	-490.4466	845.7504	1025.217	-535.3318	848.3196	1030.502	-585.6405	1020.2005	1012.1659	-706.2954	1127.0538	737.5904	-391.6245	1054.8376	700.1511	-378.7703	1102.4176	602.5596	-394.9586	1163.2707	503.5369	-523.0962	1178.8682	510.6275	-407.8842	1221.0419	349.9605	-404.4889	1241.0584	240.187	-420.29	1143.0494	333.5829	-384.5125	1168.0607	223.3245	-392.3639	1208.6699	73.3272	-401.8431	1239.26	93.7227	-496.6781	1147.8849	33.1131	-457.661	1326.9304	40.3341	-380.2184	1371.7838	44.8831	-470.1687	972.4556	714.5931	-717.4931	944.7286	609.0501	-711.6593	890.5881	731.4541	-727.5875	866.9971	624.9885	-712.3513	885.5158	460.1968	-601.101	872.2319	476.8872	-710.4108	787.5453	367.8519	-729.6955	727.4851	424.2133	-723.8341	654.8939	342.0031	-720.8233	558.7239	145.8449	-728.5869	594.4188	141.4142	-632.9058	487.4103	153.4334	-670.0483	615.8731	43.7762	-747.1506	655.7749	47.3387	-642.202	992.2151	1415.5497	-390.1137	981.3303	1416.1077	-715.8174	928.5313	1459.3811	-556.2556	884.7464	1133.2306	-554.6166	1066.912	1361.7412	-557.5168	1090.0842	1217.0828	-551.0121	848.9686	1364.6484	-475.2622
2252	22.51	1049.3684	1031.1589	-410.7944	857.0411	1031.9186	-488.8359	847.2631	1026.4851	-533.8255	849.5228	1031.545	-584.0514	1022.1617	1013.4673	-703.6125	1128.329	738.9813	-389.5366	1055.9163	701.9946	-376.617	1102.788	604.1722	-393.2049	1162.1152	504.7238	-522.1099	1178.6146	511.4168	-406.938	1217.1046	349.414	-404.1917	1233.9286	239.1577	-420.4945	1139.0127	335.0735	-382.6021	1161.0586	224.208	-391.1187	1195.981	73.6104	-401.7019	1226.811	93.3286	-496.5968	1134.3317	33.7221	-457.22	1313.6736	38.9272	-379.938	1358.7374	42.1226	-470.0722	978.8926	714.671	-715.7486	953.5666	608.4331	-711.0547	896.6877	729.7529	-725.7347	875.5034	622.6199	-711.6948	898.5275	457.4044	-601.7537	884.1334	475.1488	-710.9805	796.11	369.0006	-730.7068	738.2821	427.4844	-723.4918	662.7097	348.0129	-720.4969	559.1714	156.1005	-729.8346	594.0343	149.1861	-634.504	489.0166	170.1799	-671.4215	607.1814	49.5538	-747.8665	646.3046	49.9262	-642.5136	992.8713	1417.6323	-388.0627	981.47	1417.1953	-713.7242	928.7958	1460.5879	-554.2269	885.8627	1134.4432	-552.73	1067.5103	1363.62	-555.3408	1091.3656	1219.1509	-548.6061	849.8803	1365.6117	-472.8556
2253	22.52	1050.295	1033.6531	-408.5045	857.9501	1033.5776	-487.1881	848.5424	1027.8317	-532.2932	850.3429	1032.6914	-582.4093	1023.5811	1015.0151	-701.0671	1128.8503	740.1165	-387.5399	1056.1592	703.7585	-374.5655	1102.0963	605.5983	-391.5877	1159.8035	505.7181	-521.1835	1177.0271	511.9204	-406.0516	1211.8977	348.759	-403.8828	1225.7365	238.1404	-420.6384	1133.6791	336.3526	-381.1201	1152.9353	224.9791	-390.2023	1182.8254	73.9506	-401.6611	1213.8331	93.1307	-496.5897	1120.6641	34.1071	-456.8898	1300.0444	38.2376	-379.575	1345.2853	40.4611	-469.8331	985.7572	715.0158	-714.1523	963.1277	608.1013	-710.4888	903.2364	728.0848	-724.161	884.7169	620.3113	-711.2642	912.6041	455.0001	-602.3098	897.1545	473.6341	-711.5557	806.2607	370.3118	-731.6013	750.6799	430.829	-723.351	672.2764	354.1433	-720.2615	561.7886	167.3134	-730.9002	595.3194	157.7963	-635.7715	493.0692	187.8755	-672.8212	600.2051	57.01	-748.4066	638.1754	53.623	-642.7887	993.5881	1420.0266	-386.163	981.4307	1418.6539	-711.7159	928.968	1462.1185	-552.2679	886.7947	1135.9818	-550.7767	1067.9734	1365.7604	-553.3461	1092.4104	1221.4464	-546.4329	850.7485	1366.9537	-470.4452
2254	22.53	1050.9943	1036.2105	-406.2987	858.5575	1035.3416	-485.5121	849.5406	1029.2613	-530.7292	850.7752	1033.9359	-580.7249	1024.376	1016.7244	-698.7423	1128.5512	740.9608	-385.6771	1055.494	705.395	-372.7179	1100.2972	606.7981	-390.2058	1156.3517	506.5159	-520.389	1174.1262	512.1484	-405.2913	1205.48	348.0021	-403.6094	1216.5702	237.1271	-420.733	1127.0863	337.4197	-380.16	1143.7516	225.6261	-389.6707	1169.3208	74.2944	-401.7267	1200.4415	93.0465	-496.6754	1106.8918	34.3232	-456.6757	1286.1677	38.0201	-379.2345	1331.5452	39.5866	-469.5714	992.8874	715.6952	-712.6965	973.2042	608.1622	-709.9202	910.0857	726.5598	-722.8127	894.4458	618.2052	-710.947	927.3602	453.2198	-602.6408	911.0452	472.4997	-712.0533	817.7862	371.8492	-732.2805	764.4067	434.2909	-723.3812	683.3691	360.3702	-720.1082	566.5723	179.2844	-731.7019	598.3284	167.1699	-636.603	499.5194	206.1144	-674.1255	595.3193	66.0211	-748.689	631.7297	58.4245	-642.9924	994.3915	1422.6462	-384.4295	981.1967	1420.4168	-709.8218	929.0575	1463.9381	-550.3896	887.5111	1137.8025	-548.7802	1068.298	1368.088	-551.5732	1093.1875	1223.8801	-544.5328	851.5695	1368.6454	-468.0302
